<?xml version="1.0" encoding="UTF-8" standalone="no"?>
<!-- Created with Inkscape (http://www.inkscape.org/) -->

<svg
   xmlns:dc="http://purl.org/dc/elements/1.1/"
   xmlns:cc="http://creativecommons.org/ns#"
   xmlns:rdf="http://www.w3.org/1999/02/22-rdf-syntax-ns#"
   xmlns:svg="http://www.w3.org/2000/svg"
   xmlns="http://www.w3.org/2000/svg"
   xmlns:sodipodi="http://sodipodi.sourceforge.net/DTD/sodipodi-0.dtd"
   xmlns:inkscape="http://www.inkscape.org/namespaces/inkscape"
   id="svg2"
   height="48.868mm"
   width="41.203mm"
   version="1.1"
   viewBox="0 0 145.99524 173.15513"
   inkscape:version="0.91 r13725"
   sodipodi:docname="berean-archive-logo.svg">
  <defs
     id="defs33" />
  <sodipodi:namedview
     pagecolor="#ffffff"
     bordercolor="#666666"
     borderopacity="1"
     objecttolerance="10"
     gridtolerance="10"
     guidetolerance="10"
     inkscape:pageopacity="0"
     inkscape:pageshadow="2"
     inkscape:window-width="1964"
     inkscape:window-height="1022"
     id="namedview31"
     showgrid="false"
     inkscape:zoom="1.362946"
     inkscape:cx="72.997439"
     inkscape:cy="86.577165"
     inkscape:window-x="0"
     inkscape:window-y="0"
     inkscape:window-maximized="0"
     inkscape:current-layer="layer1" />
  <metadata
     id="metadata7">
    <rdf:RDF>
      <cc:Work
         rdf:about="">
        <dc:format>image/svg+xml</dc:format>
        <dc:type
           rdf:resource="http://purl.org/dc/dcmitype/StillImage" />
        <dc:title />
      </cc:Work>
    </rdf:RDF>
  </metadata>
  <g
     id="layer1"
     transform="translate(-3.0994 -4.36)">
    <g
       stroke-width="0"
       fill="#6c5d53"
       id="g5"
       style="fill:#51433b;fill-opacity:1">
      <rect
         id="rect4153"
         height="28.605"
         width="8.7126"
         y="67.24"
         x="53.355"
         style="fill:#51433b;fill-opacity:1" />
      <rect
         id="rect4153-9"
         height="28.605"
         width="8.7126"
         y="67.117"
         x="66.72"
         style="fill:#51433b;fill-opacity:1" />
      <rect
         id="rect4153-9-4"
         height="28.605"
         width="8.7126"
         y="67.302"
         x="92.061"
         style="fill:#51433b;fill-opacity:1" />
      <rect
         id="rect4153-9-1"
         height="28.605"
         width="8.7126"
         y="67.174"
         x="78.969"
         style="fill:#51433b;fill-opacity:1" />
    </g>
    <g
       id="g11">
      <g
         id="text4136"
         transform="translate(-175 -176.43)">
        <path
           id="path4141"
           d="m275.43 241.16h-46.164l-10.675 17.314c-1.8484 3.3398-8.581 13.778-8.581 13.778s-11.566-0.0526-30.717 0.0948l-0.0247-3.3518c3.6044-0.17578 6.625-0.20224 8.9356-0.5538 2.3105-0.41016 4.2976-1.1133 5.9612-2.1094 1.756-1.0547 3.3734-2.4609 4.8521-4.2188 1.5712-1.8164 3.3734-4.2188 5.4066-7.207 13.55-23.498 33.3-51.756 50.057-74.119 15.161 23.149 31.968 52.1 47.566 76.544 1.3863 2.5781 2.634 4.5996 3.743 6.0644 1.1091 1.4648 2.403 2.6074 3.8817 3.4277 1.4787 0.76172 3.3272 1.2891 5.5452 1.582 2.3105 0.29297 4.8261 0.52734 8.4305 0.70312l0.026 3.1641c-12.277 0.31912-29.651-0.0606-29.651-0.0606-2.372-3.7592-5.3822-8.5753-7.6229-12.421zm-42.976-5.0976h40.342l-18.577-34.805z" />
      </g>
      <rect
         id="rect4187"
         height="8.5863"
         width="144.45"
         y="99.379"
         x="4.3021"
         stroke-width="0" />
      <g
         id="text4189">
        <path
           id="path4234"
           style=""
           d="m8.4208 127.5v11.464h6.7904q3.4162 0 5.0509-1.4042 1.6557-1.4252 1.6557-4.3383 0-2.9341-1.6557-4.3174-1.6347-1.4042-5.0509-1.4042h-6.7904zm0-12.868v9.4311h6.2664q3.1018 0 4.6108-1.1527 1.5299-1.1736 1.5299-3.5629 0-2.3683-1.5299-3.5419-1.509-1.1736-4.6108-1.1736h-6.2664zm-4.2335-3.479h10.814q4.8413 0 7.4611 2.012t2.6198 5.7215q0 2.8712-1.3413 4.5688t-3.9401 2.1168q3.1227 0.67066 4.8413 2.8084 1.7395 2.1168 1.7395 5.3024 0 4.1916-2.8503 6.476t-8.1108 2.2844h-11.233v-31.29z" />
        <path
           id="path4236"
           style=""
           d="m53.522 129.74v1.8862h-17.73q0.2515 3.982 2.3892 6.0778 2.1587 2.0748 5.994 2.0748 2.2216 0 4.2964-0.54491 2.0958-0.54491 4.1497-1.6347v3.6467q-2.0748 0.88024-4.2545 1.3413-2.1796 0.46108-4.4221 0.46108-5.6167 0-8.9072-3.2694-3.2695-3.2694-3.2695-8.8443 0-5.7634 3.1018-9.1377 3.1227-3.3952 8.4042-3.3952 4.7365 0 7.482 3.0599 2.7665 3.0389 2.7665 8.2784zm-3.8563-1.1317q-0.04192-3.1647-1.7814-5.0509-1.7186-1.8862-4.5688-1.8862-3.2275 0-5.1766 1.8234-1.9281 1.8233-2.2216 5.1347l13.748-0.021z" />
        <path
           id="path4238"
           style=""
           d="m73.453 122.57q-0.6497-0.37724-1.4251-0.54491-0.75449-0.18862-1.6766-0.18862-3.2695 0-5.0299 2.1377-1.7395 2.1168-1.7395 6.0988v12.365h-3.8772v-23.473h3.8772v3.6467q1.2156-2.1377 3.1647-3.1647 1.9491-1.0479 4.7365-1.0479 0.3982 0 0.88024 0.0629 0.48203 0.0419 1.0689 0.14671l0.02096 3.9611z" />
        <path
           id="path4240"
           style=""
           d="m96.696 129.74v1.8862h-17.73q0.2515 3.982 2.3892 6.0778 2.1587 2.0748 5.994 2.0748 2.2216 0 4.2964-0.54491 2.0958-0.54491 4.1497-1.6347v3.6467q-2.0748 0.88024-4.2545 1.3413-2.1796 0.46108-4.4221 0.46108-5.6167 0-8.9072-3.2694-3.2695-3.2694-3.2695-8.8443 0-5.7634 3.1018-9.1377 3.1227-3.3952 8.4042-3.3952 4.7365 0 7.482 3.0599 2.7665 3.0389 2.7665 8.2784zm-3.8563-1.1317q-0.04192-3.1647-1.7814-5.0509-1.7186-1.8862-4.5688-1.8862-3.2275 0-5.1766 1.8234-1.9281 1.8233-2.2216 5.1347l13.748-0.021z" />
        <path
           id="path4242"
           style=""
           d="m113.69 130.64q-4.6736 0-6.476 1.0689t-1.8024 3.6467q0 2.0539 1.3413 3.2695 1.3623 1.1946 3.6886 1.1946 3.2066 0 5.1347-2.2635 1.9491-2.2844 1.9491-6.0569v-0.85928h-3.8353zm7.6916-1.5928v13.392h-3.8563v-3.5629q-1.3204 2.1377-3.2904 3.1647-1.9701 1.006-4.8204 1.006-3.6048 0-5.7425-2.012-2.1168-2.0329-2.1168-5.4281 0-3.9611 2.6407-5.973 2.6617-2.012 7.9221-2.012h5.4072v-0.37725q0-2.6617-1.7605-4.1078-1.7395-1.4671-4.9042-1.4671-2.012 0-3.9192 0.48203-1.9072 0.48204-3.6677 1.4461v-3.5629q2.1168-0.81736 4.1078-1.2156 1.991-0.41916 3.8772-0.41916 5.0928 0 7.6078 2.6407t2.515 8.006z" />
        <path
           id="path4244"
           style=""
           d="m148.86 128.27v14.168h-3.8563v-14.042q0-3.3323-1.2994-4.988t-3.8982-1.6557q-3.1227 0-4.9251 1.991t-1.8024 5.4281v13.266h-3.8772v-23.473h3.8772v3.6467q1.3832-2.1168 3.2485-3.1647 1.8862-1.0479 4.3383-1.0479 4.0449 0 6.1197 2.515 2.0748 2.494 2.0748 7.3563z" />
      </g>
      <g
         id="text4195"
         transform="scale(.99312 1.0069)">
        <path
           id="path4219"
           style=""
           d="m16.388 150.63-5.3147 14.412h10.649l-5.3341-14.412zm-2.2112-3.86h4.4419l11.037 28.96h-4.0733l-2.638-7.429h-13.054l-2.638 7.429h-4.1315l11.056-28.96z" />
        <path
           id="path4221"
           style=""
           d="m46.298 157.34q-0.6013-0.34914-1.319-0.50432-0.69829-0.17457-1.5517-0.17457-3.0259 0-4.6552 1.9785-1.6099 1.9591-1.6099 5.6445v11.444h-3.5884v-21.724h3.5884v3.375q1.125-1.9785 2.9289-2.9289 1.8039-0.96985 4.3837-0.96985 0.36854 0 0.81467 0.0582 0.44613 0.0388 0.98924 0.13577l0.0194 3.666z" />
        <path
           id="path4223"
           style=""
           d="m64.861 154.84v3.3363q-1.513-0.83407-3.0453-1.2414-1.513-0.42673-3.0647-0.42673-3.472 0-5.3923 2.2112-1.9203 2.1918-1.9203 6.1682t1.9203 6.1876q1.9203 2.1918 5.3923 2.1918 1.5518 0 3.0647-0.40733 1.5324-0.42674 3.0453-1.2608v3.2975q-1.4936 0.69828-3.1035 1.0474-1.5905 0.34914-3.3945 0.34914-4.9074 0-7.7975-3.0841t-2.8901-8.3213q0-5.3147 2.9095-8.36 2.9289-3.0453 8.0109-3.0453 1.6487 0 3.2199 0.34915 1.5711 0.32974 3.0453 1.0086z" />
        <path
           id="path4225"
           style=""
           d="m89.165 162.62v13.112h-3.569v-12.996q0-3.0841-1.2026-4.6164-1.2026-1.5324-3.6078-1.5324-2.8901 0-4.5583 1.8427-1.6681 1.8427-1.6681 5.0238v12.278h-3.5884v-30.182h3.5884v11.832q1.2802-1.9591 3.0065-2.9289 1.7457-0.96985 4.0152-0.96985 3.7436 0 5.6639 2.3276 1.9203 2.3082 1.9203 6.8083z" />
        <path
           id="path4227"
           style=""
           d="m96.323 154.01h3.569v21.724h-3.569v-21.724zm0-8.457h3.569v4.5195h-3.569v-4.5195z" />
        <path
           id="path4229"
           style=""
           d="m104.78 154.01h3.7824l6.7889 18.233 6.7889-18.233h3.7824l-8.1467 21.724h-4.8492l-8.1467-21.724z" />
        <path
           id="path4231"
           style=""
           d="m149.43 163.98v1.7457h-16.41q0.23276 3.6854 2.2112 5.6251 1.9979 1.9203 5.5475 1.9203 2.0561 0 3.9764-0.50432 1.9397-0.50432 3.8406-1.513v3.375q-1.9203 0.81467-3.9376 1.2414t-4.0927 0.42673q-5.1984 0-8.2437-3.0259-3.0259-3.0259-3.0259-8.1855 0-5.3341 2.8707-8.457 2.8901-3.1423 7.7782-3.1423 4.3837 0 6.9247 2.832 2.5604 2.8125 2.5604 7.6618zm-3.569-1.0474q-0.0388-2.9289-1.6487-4.6746-1.5906-1.7457-4.2285-1.7457-2.9871 0-4.791 1.6875-1.7845 1.6875-2.0561 4.7522l12.724-0.0194z" />
      </g>
    </g>
  </g>
</svg>
